<?xml version="1.0" encoding="UTF-8"?>
<svg xmlns="http://www.w3.org/2000/svg" version="1.1" width="3150px" height="350px">
<polyline points="0,0 3150,0 3150,350 0,350 0,0" fill="none" stroke="green" stroke-width="3" /> 
<polyline points="274.156998,36 115.385666,36 75.692833,104.750000 115.385666,173.500000 155.078499,104.750000 234.464165,104.750000" fill="none" stroke="red" stroke-width="1" /> 
<polyline points="274.156998,36 115.385666,36 75.692833,104.750000 115.385666,173.500000 155.078499,104.750000 234.464165,104.750000" fill="none" stroke="red" stroke-width="1" transform="translate(158.771332 0.000000)" />
<polyline points="274.156998,36 115.385666,36 75.692833,104.750000 115.385666,173.500000 155.078499,104.750000 234.464165,104.750000" fill="none" stroke="red" stroke-width="1" transform="translate(317.542664 0.000000)" />
<polyline points="274.156998,36 115.385666,36 75.692833,104.750000 115.385666,173.500000 155.078499,104.750000 234.464165,104.750000" fill="none" stroke="red" stroke-width="1" transform="translate(476.313995 0.000000)" />
<polyline points="274.156998,36 115.385666,36 75.692833,104.750000 115.385666,173.500000 155.078499,104.750000 234.464165,104.750000" fill="none" stroke="red" stroke-width="1" transform="translate(635.085327 0.000000)" />
<polyline points="274.156998,36 115.385666,36 75.692833,104.750000 115.385666,173.500000 155.078499,104.750000 234.464165,104.750000" fill="none" stroke="red" stroke-width="1" transform="translate(793.856689 0.000000)" />
<polyline points="274.156998,36 115.385666,36 75.692833,104.750000 115.385666,173.500000 155.078499,104.750000 234.464165,104.750000" fill="none" stroke="red" stroke-width="1" transform="translate(952.627991 0.000000)" />
<polyline points="274.156998,36 115.385666,36 75.692833,104.750000 115.385666,173.500000 155.078499,104.750000 234.464165,104.750000" fill="none" stroke="red" stroke-width="1" transform="translate(1111.399292 0.000000)" />
<polyline points="274.156998,36 115.385666,36 75.692833,104.750000 115.385666,173.500000 155.078499,104.750000 234.464165,104.750000" fill="none" stroke="red" stroke-width="1" transform="translate(1270.170654 0.000000)" />
<polyline points="274.156998,36 115.385666,36 75.692833,104.750000 115.385666,173.500000 155.078499,104.750000 234.464165,104.750000" fill="none" stroke="red" stroke-width="1" transform="translate(1428.942017 0.000000)" />
<polyline points="274.156998,36 115.385666,36 75.692833,104.750000 115.385666,173.500000 155.078499,104.750000 234.464165,104.750000" fill="none" stroke="red" stroke-width="1" transform="translate(1587.713379 0.000000)" />
<polyline points="274.156998,36 115.385666,36 75.692833,104.750000 115.385666,173.500000 155.078499,104.750000 234.464165,104.750000" fill="none" stroke="red" stroke-width="1" transform="translate(1746.484619 0.000000)" />
<polyline points="274.156998,36 115.385666,36 75.692833,104.750000 115.385666,173.500000 155.078499,104.750000 234.464165,104.750000" fill="none" stroke="red" stroke-width="1" transform="translate(1905.255981 0.000000)" />
<polyline points="274.156998,36 115.385666,36 75.692833,104.750000 115.385666,173.500000 155.078499,104.750000 234.464165,104.750000" fill="none" stroke="red" stroke-width="1" transform="translate(2064.027344 0.000000)" />
<polyline points="274.156998,36 115.385666,36 75.692833,104.750000 115.385666,173.500000 155.078499,104.750000 234.464165,104.750000" fill="none" stroke="red" stroke-width="1" transform="translate(2222.798584 0.000000)" />
<polyline points="274.156998,36 115.385666,36 75.692833,104.750000 115.385666,173.500000 155.078499,104.750000 234.464165,104.750000" fill="none" stroke="red" stroke-width="1" transform="translate(2381.570068 0.000000)" />
<polyline points="274.156998,36 115.385666,36 75.692833,104.750000 115.385666,173.500000 155.078499,104.750000 234.464165,104.750000" fill="none" stroke="red" stroke-width="1" transform="translate(2540.341309 0.000000)" />
<polyline points="274.156998,36 115.385666,36 75.692833,104.750000 115.385666,173.500000 155.078499,104.750000 234.464165,104.750000" fill="none" stroke="red" stroke-width="1" transform="translate(2699.112549 0.000000)" />
<polyline points="313.849831,104.750000 274.156998,173.500000 234.464165,104.750000 274.156998,36 313.849831,104.750000 353.542664,36 393.235497,104.750000 234.464165,104.750000" fill="none" stroke="red" stroke-width="1" transform="translate(2699.112549 0.000000)" />
<polyline points="155.078499,104.750000 194.771332,173.500000 234.464165,104.750000" fill="none" stroke="red" stroke-width="1" /> 
<polyline points="155.078499,104.750000 194.771332,173.500000 234.464165,104.750000" fill="none" stroke="red" stroke-width="1" transform="translate(158.771332 0.000000)" />
<polyline points="155.078499,104.750000 194.771332,173.500000 234.464165,104.750000" fill="none" stroke="red" stroke-width="1" transform="translate(317.542664 0.000000)" />
<polyline points="155.078499,104.750000 194.771332,173.500000 234.464165,104.750000" fill="none" stroke="red" stroke-width="1" transform="translate(476.313995 0.000000)" />
<polyline points="155.078499,104.750000 194.771332,173.500000 234.464165,104.750000" fill="none" stroke="red" stroke-width="1" transform="translate(635.085327 0.000000)" />
<polyline points="155.078499,104.750000 194.771332,173.500000 234.464165,104.750000" fill="none" stroke="red" stroke-width="1" transform="translate(793.856689 0.000000)" />
<polyline points="155.078499,104.750000 194.771332,173.500000 234.464165,104.750000" fill="none" stroke="red" stroke-width="1" transform="translate(952.627991 0.000000)" />
<polyline points="155.078499,104.750000 194.771332,173.500000 234.464165,104.750000" fill="none" stroke="red" stroke-width="1" transform="translate(1111.399292 0.000000)" />
<polyline points="155.078499,104.750000 194.771332,173.500000 234.464165,104.750000" fill="none" stroke="red" stroke-width="1" transform="translate(1270.170654 0.000000)" />
<polyline points="155.078499,104.750000 194.771332,173.500000 234.464165,104.750000" fill="none" stroke="red" stroke-width="1" transform="translate(1428.942017 0.000000)" />
<polyline points="155.078499,104.750000 194.771332,173.500000 234.464165,104.750000" fill="none" stroke="red" stroke-width="1" transform="translate(1587.713379 0.000000)" />
<polyline points="155.078499,104.750000 194.771332,173.500000 234.464165,104.750000" fill="none" stroke="red" stroke-width="1" transform="translate(1746.484619 0.000000)" />
<polyline points="155.078499,104.750000 194.771332,173.500000 234.464165,104.750000" fill="none" stroke="red" stroke-width="1" transform="translate(1905.255981 0.000000)" />
<polyline points="155.078499,104.750000 194.771332,173.500000 234.464165,104.750000" fill="none" stroke="red" stroke-width="1" transform="translate(2064.027344 0.000000)" />
<polyline points="155.078499,104.750000 194.771332,173.500000 234.464165,104.750000" fill="none" stroke="red" stroke-width="1" transform="translate(2222.798584 0.000000)" />
<polyline points="155.078499,104.750000 194.771332,173.500000 234.464165,104.750000" fill="none" stroke="red" stroke-width="1" transform="translate(2381.570068 0.000000)" />
<polyline points="155.078499,104.750000 194.771332,173.500000 234.464165,104.750000" fill="none" stroke="red" stroke-width="1" transform="translate(2540.341309 0.000000)" />
<polyline points="155.078499,104.750000 194.771332,173.500000 234.464165,104.750000" fill="none" stroke="red" stroke-width="1" transform="translate(2699.112549 0.000000)" />
<polyline points="155.078499,104.750000 194.771332,173.500000 234.464165,104.750000" fill="none" stroke="red" stroke-width="1" transform="translate(2857.884033 0.000000)" />
<polyline points="155.078499,104.750000 194.771332,173.500000 234.464165,104.750000" fill="none" stroke="red" stroke-width="1" transform="translate(3016.655273 0.000000)" />
<polyline points="155.078499,104.750000 194.771332,173.500000 234.464165,104.750000" fill="none" stroke="red" stroke-width="1" transform="translate(3175.426758 0.000000)" />
<polyline points="155.078499,104.750000 194.771332,173.500000 234.464165,104.750000" fill="none" stroke="red" stroke-width="1" transform="translate(3334.197998 0.000000)" />
<polyline points="155.078499,104.750000 194.771332,173.500000 234.464165,104.750000" fill="none" stroke="red" stroke-width="1" transform="translate(3492.969238 0.000000)" />
<polyline points="115.385666,173.500000 75.692833,242.250000 115.385666,311.000000 194.771332,311.000000" fill="none" stroke="red" stroke-width="1" /> 
<polyline points="115.385666,173.500000 75.692833,242.250000 115.385666,311.000000 194.771332,311.000000" fill="none" stroke="red" stroke-width="1" transform="translate(79.385666 0.000000)" />
<polyline points="115.385666,173.500000 75.692833,242.250000 115.385666,311.000000 194.771332,311.000000" fill="none" stroke="red" stroke-width="1" transform="translate(158.771332 0.000000)" />
<polyline points="115.385666,173.500000 75.692833,242.250000 115.385666,311.000000 194.771332,311.000000" fill="none" stroke="red" stroke-width="1" transform="translate(238.156998 0.000000)" />
<polyline points="115.385666,173.500000 75.692833,242.250000 115.385666,311.000000 194.771332,311.000000" fill="none" stroke="red" stroke-width="1" transform="translate(317.542664 0.000000)" />
<polyline points="115.385666,173.500000 75.692833,242.250000 115.385666,311.000000 194.771332,311.000000" fill="none" stroke="red" stroke-width="1" transform="translate(396.928345 0.000000)" />
<polyline points="115.385666,173.500000 75.692833,242.250000 115.385666,311.000000 194.771332,311.000000" fill="none" stroke="red" stroke-width="1" transform="translate(476.313995 0.000000)" />
<polyline points="115.385666,173.500000 75.692833,242.250000 115.385666,311.000000 194.771332,311.000000" fill="none" stroke="red" stroke-width="1" transform="translate(555.699646 0.000000)" />
<polyline points="115.385666,173.500000 75.692833,242.250000 115.385666,311.000000 194.771332,311.000000" fill="none" stroke="red" stroke-width="1" transform="translate(635.085327 0.000000)" />
<polyline points="115.385666,173.500000 75.692833,242.250000 115.385666,311.000000 194.771332,311.000000" fill="none" stroke="red" stroke-width="1" transform="translate(714.471008 0.000000)" />
<polyline points="115.385666,173.500000 75.692833,242.250000 115.385666,311.000000 194.771332,311.000000" fill="none" stroke="red" stroke-width="1" transform="translate(793.856689 0.000000)" />
<polyline points="115.385666,173.500000 75.692833,242.250000 115.385666,311.000000 194.771332,311.000000" fill="none" stroke="red" stroke-width="1" transform="translate(873.242310 0.000000)" />
<polyline points="115.385666,173.500000 75.692833,242.250000 115.385666,311.000000 194.771332,311.000000" fill="none" stroke="red" stroke-width="1" transform="translate(952.627991 0.000000)" />
<polyline points="115.385666,173.500000 75.692833,242.250000 115.385666,311.000000 194.771332,311.000000" fill="none" stroke="red" stroke-width="1" transform="translate(1032.013672 0.000000)" />
<polyline points="115.385666,173.500000 75.692833,242.250000 115.385666,311.000000 194.771332,311.000000" fill="none" stroke="red" stroke-width="1" transform="translate(1111.399292 0.000000)" />
<polyline points="115.385666,173.500000 75.692833,242.250000 115.385666,311.000000 194.771332,311.000000" fill="none" stroke="red" stroke-width="1" transform="translate(1190.785034 0.000000)" />
<polyline points="115.385666,173.500000 75.692833,242.250000 115.385666,311.000000 194.771332,311.000000" fill="none" stroke="red" stroke-width="1" transform="translate(1270.170654 0.000000)" />
<polyline points="115.385666,173.500000 75.692833,242.250000 115.385666,311.000000 194.771332,311.000000" fill="none" stroke="red" stroke-width="1" transform="translate(1349.556274 0.000000)" />
<polyline points="115.385666,173.500000 75.692833,242.250000 115.385666,311.000000 194.771332,311.000000" fill="none" stroke="red" stroke-width="1" transform="translate(1428.942017 0.000000)" />
<polyline points="115.385666,173.500000 75.692833,242.250000 115.385666,311.000000 194.771332,311.000000" fill="none" stroke="red" stroke-width="1" transform="translate(1508.327637 0.000000)" />
<polyline points="115.385666,173.500000 75.692833,242.250000 115.385666,311.000000 194.771332,311.000000" fill="none" stroke="red" stroke-width="1" transform="translate(1587.713379 0.000000)" />
<polyline points="115.385666,173.500000 75.692833,242.250000 115.385666,311.000000 194.771332,311.000000" fill="none" stroke="red" stroke-width="1" transform="translate(1667.098999 0.000000)" />
<polyline points="115.385666,173.500000 75.692833,242.250000 115.385666,311.000000 194.771332,311.000000" fill="none" stroke="red" stroke-width="1" transform="translate(1746.484619 0.000000)" />
<polyline points="115.385666,173.500000 75.692833,242.250000 115.385666,311.000000 194.771332,311.000000" fill="none" stroke="red" stroke-width="1" transform="translate(1825.870361 0.000000)" />
<polyline points="115.385666,173.500000 75.692833,242.250000 115.385666,311.000000 194.771332,311.000000" fill="none" stroke="red" stroke-width="1" transform="translate(1905.255981 0.000000)" />
<polyline points="115.385666,173.500000 75.692833,242.250000 115.385666,311.000000 194.771332,311.000000" fill="none" stroke="red" stroke-width="1" transform="translate(1984.641602 0.000000)" />
<polyline points="115.385666,173.500000 75.692833,242.250000 115.385666,311.000000 194.771332,311.000000" fill="none" stroke="red" stroke-width="1" transform="translate(2064.027344 0.000000)" />
<polyline points="115.385666,173.500000 75.692833,242.250000 115.385666,311.000000 194.771332,311.000000" fill="none" stroke="red" stroke-width="1" transform="translate(2143.413086 0.000000)" />
<polyline points="115.385666,173.500000 75.692833,242.250000 115.385666,311.000000 194.771332,311.000000" fill="none" stroke="red" stroke-width="1" transform="translate(2222.798584 0.000000)" />
<polyline points="115.385666,173.500000 75.692833,242.250000 115.385666,311.000000 194.771332,311.000000" fill="none" stroke="red" stroke-width="1" transform="translate(2302.184326 0.000000)" />
<polyline points="115.385666,173.500000 75.692833,242.250000 115.385666,311.000000 194.771332,311.000000" fill="none" stroke="red" stroke-width="1" transform="translate(2381.570068 0.000000)" />
<polyline points="115.385666,173.500000 75.692833,242.250000 115.385666,311.000000 194.771332,311.000000" fill="none" stroke="red" stroke-width="1" transform="translate(2460.955566 0.000000)" />
<polyline points="115.385666,173.500000 75.692833,242.250000 115.385666,311.000000 194.771332,311.000000" fill="none" stroke="red" stroke-width="1" transform="translate(2540.341309 0.000000)" />
<polyline points="115.385666,173.500000 75.692833,242.250000 115.385666,311.000000 194.771332,311.000000" fill="none" stroke="red" stroke-width="1" transform="translate(2619.727051 0.000000)" />
<polyline points="115.385666,173.500000 75.692833,242.250000 115.385666,311.000000 194.771332,311.000000" fill="none" stroke="red" stroke-width="1" transform="translate(2699.112549 0.000000)" />
<polyline points="115.385666,173.500000 75.692833,242.250000 115.385666,311.000000 194.771332,311.000000" fill="none" stroke="red" stroke-width="1" transform="translate(2778.498291 0.000000)" />
<polyline points="115.385666,173.500000 75.692833,242.250000 115.385666,311.000000 194.771332,311.000000" fill="none" stroke="red" stroke-width="1" transform="translate(2857.884033 0.000000)" />
<polyline points="115.385666,173.500000 75.692833,242.250000 115.385666,311.000000" fill="none" stroke="red" stroke-width="1" transform="translate(2937.269531 0.000000)" />
<polyline points="115.385666,173.500000 155.078499,242.250000 115.385666,311.000000" fill="none" stroke="red" stroke-width="1" transform="translate(2937.269531 0.000000)" />
<polyline points="75.692833,242.250000 155.078499,242.250000" fill="none" stroke="red" stroke-width="1" transform="translate(2937.269531 0.000000)" />
</svg>
